<svg xml:space="preserve" style="enable-background:new 0 0 293 65.2;" viewBox="0 0 293 65.2" y="0px" x="0px" xmlns:xlink="http://www.w3.org/1999/xlink" xmlns="http://www.w3.org/2000/svg" id="Lager_1" version="1.1">
<style type="text/css">
	.st0{display:none;}
	.st1{display:inline;}
</style>
<g class="st0" id="Layer_2">
	<g class="st1">
		<rect height="167" width="392" y="-40.6" x="-12"></rect>
	</g>
</g>
<path d="M79.9,0L4.7,18.8C2,19.5,0,21.9,0,24.8v16L75.2,22c2.7-0.6,4.7-3.1,4.7-6L79.9,0L79.9,0z"></path>
<path d="M79.9,24.2L4.7,43C2,43.6,0,46.1,0,49v16l75.2-18.8c2.7-0.7,4.7-3.1,4.7-6L79.9,24.2L79.9,24.2z"></path>
<polygon points="119.7,0.5 119.7,11.1 124.3,11.1 124.3,37.9 109.5,0.5 95.8,0.5 95.8,11.1 100.4,11.1 100.4,54.6 95.8,54.6 
	95.8,65.2 115.1,65.2 115.1,54.6 110.5,54.6 110.5,29 125.1,65.2 134.3,65.2 134.3,11.1 138.9,11.1 138.9,0.5"></polygon>
<path d="M176.1,7.5l-6.5-7H150l-6.5,7v50.7l6.5,7h19.7l6.5-7V7.5z M166.1,54.6h-12.6V11.1h12.6V54.6z"></path>
<polygon points="204.9,45.3 204.9,54.6 192.8,54.6 192.8,11.1 204.9,11.1 204.9,20.3 214.9,20.3 214.9,7.5 208.4,0.5 189.3,0.5 
	182.8,7.5 182.8,58.2 189.3,65.2 208.4,65.2 214.9,58.2 214.9,45.3"></polygon>
<polygon points="243.6,45.3 243.6,54.6 231.6,54.6 231.6,11.1 243.6,11.1 243.6,20.3 253.7,20.3 253.7,7.5 247.2,0.5 228.1,0.5 
	221.6,7.5 221.6,58.2 228.1,65.2 247.2,65.2 253.7,58.2 253.7,45.3"></polygon>
<path d="M270.4,11.1H283v43.5h-12.6V11.1z M266.8,0.5l-6.5,7v50.7l6.5,7h19.7l6.5-7V7.5l-6.5-7L266.8,0.5L266.8,0.5z"></path>
</svg>
