<svg id="svg4866" version="1.1" viewBox="0 0 35.983333 20.902084" height="79" width="136" xmlns="http://www.w3.org/2000/svg">
  <defs id="defs4860"></defs>
  
  <metadata id="metadata4863">
    
      
        image/svg+xml
        
        
      
    
  </metadata>
  <g transform="translate(0,-276.09791)" id="layer1">
    <path id="path3745-3" transform="matrix(0.26458333,0,0,0.26458333,0,276.09791)" d="M 122.91016 46.994141 C 122.67789 47.008125 122.42434 47.039576 122.15039 47.087891 L 118.84961 47.669922 L 116.14258 57.767578 L 119.64453 57.150391 C 120.71723 56.961238 121.61781 56.556926 122.34375 55.935547 C 123.06971 55.314167 123.55405 54.550761 123.79688 53.644531 C 123.95546 53.052708 123.93161 52.572259 123.72656 52.203125 C 123.52736 51.828599 123.17658 51.613082 122.67188 51.556641 C 123.18753 51.276326 123.62738 50.931375 123.99219 50.523438 C 124.35823 50.110889 124.60411 49.668875 124.73047 49.197266 C 124.96833 48.309505 124.87092 47.687307 124.4375 47.332031 C 124.11589 47.065008 123.60695 46.952188 122.91016 46.994141 z M 122.31445 48.126953 C 122.73428 48.098323 123.04079 48.156719 123.23242 48.304688 C 123.48918 48.497292 123.54319 48.870921 123.39453 49.425781 C 123.26074 49.925082 122.9783 50.351818 122.54883 50.705078 C 122.12399 51.057456 121.61967 51.285869 121.03711 51.388672 L 119.02734 51.742188 L 119.88672 48.53125 L 121.85742 48.183594 C 122.02272 48.154428 122.17451 48.136496 122.31445 48.126953 z M 106.36328 49.873047 L 105.19727 50.078125 L 98.634766 60.855469 L 100.00977 60.613281 L 101.66602 57.810547 L 105.89648 57.064453 L 106.1543 59.529297 L 107.51953 59.289062 L 106.36328 49.873047 z M 105.33984 51.619141 L 105.79492 56.039062 L 102.36133 56.644531 L 105.33984 51.619141 z M 121.41602 52.365234 C 122.39282 52.319712 122.74018 52.830531 122.45508 53.894531 C 122.30394 54.458638 122.00403 54.933087 121.55664 55.320312 C 121.11514 55.702045 120.58438 55.947286 119.96484 56.056641 L 117.76562 56.445312 L 118.74023 52.810547 L 120.95898 52.419922 C 121.12428 52.390775 121.27647 52.371738 121.41602 52.365234 z M 89.662109 52.816406 L 88.324219 53.052734 L 85.619141 63.150391 L 91.742188 62.070312 L 92.033203 60.982422 L 87.248047 61.826172 L 89.662109 52.816406 z M 78.441406 54.794922 L 70.632812 56.171875 L 70.339844 57.267578 L 73.578125 56.697266 L 71.166016 65.699219 L 72.490234 65.464844 L 74.902344 56.462891 L 78.148438 55.890625 L 78.441406 54.794922 z M 59.039062 58.263672 C 58.796322 58.27564 58.532404 58.305327 58.248047 58.355469 L 54.904297 58.945312 L 52.199219 69.042969 L 53.537109 68.806641 L 54.632812 64.722656 L 57.003906 64.304688 L 58.101562 68.001953 L 59.529297 67.75 L 59.552734 67.667969 L 58.328125 63.798828 C 58.995781 63.460838 59.560783 63.028416 60.023438 62.501953 C 60.490711 61.974608 60.810024 61.398319 60.978516 60.769531 C 61.243632 59.780051 61.136346 59.07932 60.660156 58.669922 C 60.306485 58.362268 59.767284 58.227766 59.039062 58.263672 z M 58.474609 59.392578 C 58.921864 59.375674 59.252386 59.4672 59.462891 59.667969 C 59.74822 59.934829 59.805929 60.381658 59.638672 61.005859 C 59.485064 61.579189 59.16635 62.070957 58.681641 62.482422 C 58.20158 62.892954 57.629943 63.156776 56.96875 63.273438 L 54.923828 63.632812 L 55.949219 59.804688 L 57.988281 59.445312 C 58.163671 59.415492 58.325525 59.398213 58.474609 59.392578 z M 41.095703 61.283203 C 40.912142 61.292164 40.719854 61.313956 40.517578 61.349609 C 39.7223 61.489855 38.96048 61.813453 38.234375 62.320312 C 37.514133 62.821755 36.886597 63.475391 36.349609 64.279297 C 35.812601 65.083228 35.414458 65.970446 35.154297 66.941406 L 34.958984 67.669922 C 34.713038 68.62075 34.661695 69.429297 34.804688 70.095703 C 34.953563 70.756642 35.281371 71.229099 35.791016 71.513672 C 36.301915 71.793861 36.956717 71.863003 37.751953 71.722656 C 38.565726 71.57916 39.32857 71.259647 40.042969 70.763672 C 40.75735 70.267672 41.380289 69.623955 41.910156 68.830078 C 42.441301 68.03159 42.838394 67.135939 43.103516 66.146484 L 43.275391 65.509766 C 43.539277 64.524947 43.603452 63.690862 43.46875 63.009766 C 43.335345 62.324059 43.011601 61.841631 42.496094 61.5625 C 42.113846 61.349146 41.646386 61.256321 41.095703 61.283203 z M 40.806641 62.447266 C 41.350858 62.466125 41.739213 62.685084 41.970703 63.103516 C 42.280745 63.656788 42.275955 64.53101 41.955078 65.728516 L 41.753906 66.478516 C 41.426592 67.650749 40.94284 68.592725 40.302734 69.304688 C 39.663861 70.012013 38.914669 70.442065 38.054688 70.59375 C 37.199333 70.744553 36.613757 70.531797 36.300781 69.957031 C 35.993728 69.376849 35.995682 68.506245 36.306641 67.345703 L 36.505859 66.603516 C 36.824493 65.463661 37.309125 64.533394 37.960938 63.810547 C 38.618633 63.082257 39.369428 62.64255 40.210938 62.494141 C 40.427091 62.45603 40.625235 62.440979 40.806641 62.447266 z M 23.939453 64.455078 C 23.702692 64.463226 23.446183 64.492323 23.169922 64.541016 L 19.445312 65.197266 L 16.740234 75.294922 L 18.072266 75.060547 L 19.130859 71.107422 L 21.509766 70.6875 C 22.65178 70.486127 23.599985 70.068302 24.351562 69.433594 C 25.108962 68.793443 25.618209 67.984114 25.880859 67.003906 C 26.12989 66.074546 26.014782 65.382878 25.537109 64.929688 C 25.182327 64.589228 24.649735 64.430634 23.939453 64.455078 z M 23.412109 65.583984 C 23.83491 65.581244 24.151387 65.68981 24.363281 65.910156 C 24.645766 66.203977 24.705978 66.650907 24.544922 67.251953 C 24.375184 67.885402 24.055503 68.404235 23.585938 68.808594 C 23.117585 69.208443 22.52844 69.472176 21.816406 69.597656 L 19.423828 70.019531 L 20.484375 66.058594 L 22.953125 65.623047 C 23.117493 65.597346 23.271176 65.584898 23.412109 65.583984 z M 6.7714844 67.396484 C 6.4808217 67.383886 6.1612218 67.407648 5.8144531 67.46875 C 4.7972621 67.648126 3.8991707 68.05642 3.1210938 68.691406 C 2.3489216 69.320924 1.8576187 70.032837 1.6445312 70.828125 C 1.4562152 71.53089 1.5563152 72.077254 1.9453125 72.466797 C 2.3401735 72.850822 3.06506 73.10543 4.1191406 73.232422 C 4.9593724 73.335351 5.5153839 73.493425 5.7890625 73.705078 C 6.0639954 73.912095 6.1345339 74.263072 6.0019531 74.757812 C 5.8693933 75.252553 5.5782904 75.676591 5.1269531 76.029297 C 4.6756362 76.381952 4.0992799 76.620172 3.3964844 76.744141 C 2.6428496 76.877079 2.085542 76.806678 1.7265625 76.535156 C 1.3734879 76.258218 1.2798353 75.815396 1.4433594 75.205078 L 0.10351562 75.441406 C -0.053836236 76.028619 -0.0318072 76.524396 0.16796875 76.929688 C 0.37235335 77.334072 0.73834673 77.617029 1.2675781 77.779297 C 1.7980234 77.936777 2.4099783 77.954236 3.1035156 77.832031 C 4.1715866 77.64371 5.090001 77.249117 5.859375 76.646484 C 6.6300038 76.03924 7.1264225 75.326156 7.3457031 74.507812 C 7.4833132 73.994553 7.4870194 73.568812 7.3574219 73.230469 C 7.2324541 72.891244 6.9690019 72.621875 6.5683594 72.423828 C 6.1735603 72.220338 5.5869177 72.075714 4.8085938 71.988281 C 4.0348786 71.899916 3.5101728 71.745359 3.234375 71.525391 C 2.9643998 71.299854 2.8858364 70.981777 2.9960938 70.570312 C 3.133612 70.057078 3.4231554 69.624505 3.8652344 69.273438 C 4.3131769 68.917053 4.864919 68.680359 5.5214844 68.564453 C 6.2288887 68.439754 6.7292051 68.519799 7.0234375 68.802734 C 7.318926 69.081008 7.3862014 69.524448 7.2226562 70.134766 L 8.5605469 69.898438 C 8.7104429 69.338992 8.6975981 68.850261 8.5234375 68.431641 C 8.3538851 68.012088 8.0323364 67.716764 7.5585938 67.544922 C 7.324037 67.458623 7.0621471 67.409083 6.7714844 67.396484 z" style="font-style:normal;font-variant:normal;font-weight:normal;font-stretch:normal;font-size:40px;line-height:1.25;font-family:Roboto;-inkscape-font-specification:Roboto;letter-spacing:23.57060051px;word-spacing:0px;fill:#000000;fill-opacity:1;stroke:none;stroke-width:0.346605"></path>
    <path id="rect74734-02-0-1-0-8-0-88" d="m 34.931469,276.38559 c -0.09698,0 -0.199383,0.009 -0.306554,0.0278 -2.358757,0.41592 -4.717538,0.83183 -7.076295,1.24774 -0.948036,3.53815 -1.896105,7.07631 -2.844174,10.61447 1.179387,-0.20794 2.35879,-0.41595 3.538168,-0.62392 l 2.370099,-8.84536 1.769067,-0.31199 c -0.790002,2.94848 -1.580054,5.89698 -2.370106,8.84544 l 3.538217,-0.62387 2.370098,-8.84535 c 0.233882,-0.87284 -0.198705,-1.48383 -0.988438,-1.485 v 0 z m -8.981529,1.57348 c -0.0124,0 -0.02497,0 -0.03772,0 v 0 c -0.04222,10e-4 -0.08638,0.006 -0.132288,0.0136 -2.358667,0.4159 -4.717318,0.83179 -7.075993,1.24769 -0.49003,0.0864 -0.990276,0.55047 -1.121567,1.04051 -0.157968,0.58951 -0.31592,1.17907 -0.473863,1.76859 -0.707998,2.64209 -1.263107,4.71387 -1.896203,7.07655 -0.131292,0.49003 0.157519,0.81492 0.647541,0.72851 2.358757,-0.41592 4.717538,-0.83178 7.076295,-1.24769 0.49003,-0.0864 0.99021,-0.55049 1.121526,-1.04051 l 0.237018,-0.88455 2.133081,-7.96089 c 0.115279,-0.43021 -0.09327,-0.73314 -0.477488,-0.74222 z m -9.015824,1.57374 -3.538127,0.62382 c -0.869052,3.24331 -1.738064,6.48662 -2.607116,9.72992 -0.131308,0.49002 0.157437,0.81497 0.647451,0.72859 l 2.653618,-0.46791 z m 5.717792,0.67728 -1.896113,7.07626 -1.769018,0.312 1.896031,-7.07634 z m -11.602942,0.38669 c -0.097,0 -0.199399,0.009 -0.306595,0.0278 -2.3587648,0.41592 -4.7175299,0.83185 -7.0762949,1.24778 -0.9480443,3.53815 -1.8960724,7.0763 -2.84413304,10.61446 2.49196734,-0.43943 4.50173474,-0.7938 7.07633594,-1.24777 0.9800691,-0.17281 1.98047,-1.10091 2.243094,-2.08098 0.690516,-2.5773 1.221153,-4.55755 1.896072,-7.07629 0.233882,-0.87289 -0.198689,-1.48384 -0.988479,-1.48496 z m -2.5497295,2.10874 c -0.6719394,2.50773 -1.2442444,4.64383 -1.8960724,7.07634 l -1.7690186,0.31187 1.8960723,-7.0763 z" style="fill:#000000;fill-opacity:1;stroke:none;stroke-width:0.13573737;stroke-linecap:round;stroke-linejoin:round;stroke-miterlimit:4;stroke-dasharray:none;stroke-opacity:1"></path>
  </g>
</svg>
