<svg xmlns="http://www.w3.org/2000/svg" fill="none" viewBox="0 0 120 28"><path fill="#000" d="M91.603 26.01c.572.55 1.335.887 2.272 1.005q.406.05.799.05c1.307 0 2.527-.414 3.624-1.232.194-.144.38-.29.567-.441a.2.2 0 0 1 .264.008l.665.664c.695.66 1.682 1.009 2.86 1.009.244 0 .504-.015.772-.046 1.321-.149 2.503-.69 3.615-1.654a.2.2 0 0 1 .275.01l.044.044.346.342c.526.47 1.16.827 1.836 1.032.921.28 1.934.429 2.929.429 2.217 0 4.059-.718 5.19-2.022 1.311-1.512 1.865-3.707 1.481-5.872-.111-.629-.247-1.255-.383-1.885l-.074-.343a.2.2 0 0 1 .048-.178c.605-.663.938-1.52.938-2.41a3.58 3.58 0 0 0-1.124-2.604l-.596-.595.018.007a8 8 0 0 1-.383-.372l-.274-.275.02.009c-.068-.056-.183-.172-.426-.415l.019.008a9 9 0 0 1-.423-.412l.029.024c-.001 0-.046-.04-.107-.102l-.361-.36.004.002-.06-.058a3.87 3.87 0 0 0-2.697-1.074 3.89 3.89 0 0 0-2.841 1.224c-.419.45-.752.93-1.074 1.394l-1.432 2.042c-.12.17-.281.398-.462.651a.202.202 0 0 1-.36-.168l.571-2.205c.328-1.262.659-2.523.992-3.791l.44-1.676a1.87 1.87 0 0 0-.529-1.798l-2.54-2.54c-.407-.403-.992-.646-1.607-.667a10 10 0 0 0-.407-.009c-2.927 0-3.485 1.538-3.588 2.019l-.156.591a.2.2 0 0 1-.307.117c-.017-.011-.017-.011-.973-.967l-1.152-1.152c-.354-.335-.807-.527-1.348-.57A8 8 0 0 0 95.88.77c-2.634 0-3.413 1.457-3.643 2.326l-.312 1.178c-.652 2.463-1.321 4.99-1.976 7.51a.202.202 0 0 1-.338.093l-1.308-1.308c-.58-.63-1.401-1.071-2.373-1.276a8 8 0 0 0-1.633-.174 7 7 0 0 0-2.903.62c-1.72.776-3.1 1.88-4.105 3.284-.035.048-.1.066-.16.07l-.01.001a.25.25 0 0 1-.161-.073l-2.543-2.545a4 4 0 0 0-2.063-1.222.203.203 0 0 1-.15-.25l.855-3.188c.184-.524.124-1.342-.441-1.898L70.109 1.41c-.402-.42-.981-.634-1.72-.634-3.224 0-3.91 1.773-3.978 1.976l-.019.062-.992 3.76q-.686 2.595-1.369 5.189a.202.202 0 0 1-.338.091l-1.285-1.286c-.581-.63-1.402-1.071-2.374-1.276A8 8 0 0 0 56.4 9.12a7 7 0 0 0-2.904.62c-1.892.854-3.37 2.104-4.394 3.716a.202.202 0 0 1-.315.033c-.016-.016-.598-.598-.597-.6-.01-.006-.014-.011-.382-.38l-1.225-1.223c-.534-.502-1.24-.886-2.158-1.172q-.3-.093-.607-.172a.2.2 0 0 1-.093-.054l-1.484-1.485c-.314-.346-.77-.526-1.35-.536-.92 0-1.723.595-2.2 1.631a4.8 4.8 0 0 0-.351 1.079l-.104.377a.2.2 0 0 1-.194.149.2.2 0 0 1-.143-.059L36.465 9.61a1.9 1.9 0 0 0-.41-.313c-.359-.206-.732-.314-1.114-.414a15 15 0 0 0-.786-.18 4 4 0 0 0-.766-.078c-.84 0-1.557.289-2.074.835a2.5 2.5 0 0 0-.278.353.2.2 0 0 1-.286.056 4.4 4.4 0 0 0-1.652-.725 4 4 0 0 0-.817-.08c-.619 0-1.269.135-1.933.4a.2.2 0 0 1-.18-.015.2.2 0 0 1-.096-.153 5.1 5.1 0 0 0-.63-2.032 6.2 6.2 0 0 0-.826-1.148l-2.538-2.54c-.8-.88-1.873-1.557-3.282-2.07C17.424 1.003 15.983.76 14.39.76c-.756 0-1.559.058-2.384.171-3.38.466-6.15 1.76-8.23 3.845-1.747 1.75-2.467 3.896-2.083 6.207.112.676.409 1.275.862 1.737l1.675 1.677s.887.884.891.89q.257.256.562.436c.08.048.118.145.09.234-.32 1.037-.71 2.131-1.384 3.1a.2.2 0 0 1-.06.057l-.044.024-.04.013c-1.702.364-2.883.978-3.61 1.877-.57.707-.773 1.565-.543 2.295q.139.44.482.766L3.1 26.612c.428.417 1.055.628 1.862.628 1.585 0 3.148-.407 4.647-1.21a.2.2 0 0 1 .173-.009c1.428.594 2.924.894 4.447.894.479 0 .969-.029 1.456-.087 2.72-.326 4.8-1.326 6.355-3.059a.2.2 0 0 1 .28-.02l.552.55.608.609.772.772a4.4 4.4 0 0 0 1.22.905 4.76 4.76 0 0 0 2.114.477c.65 0 1.325-.121 1.95-.351a7 7 0 0 0 1.912-1.093.2.2 0 0 1 .263.01l.085.084c.824.842 2.06 1.345 3.307 1.345q.18 0 .363-.015c1.645-.132 3.286-1.078 4.501-2.595.185-.23.363-.473.53-.72a.2.2 0 0 1 .167-.09c.054 0 .105.022.143.06l.365.365.306.305.63.63.297.298.675.675c.662.662 1.682 1.012 2.951 1.012 1.412 0 2.965-.434 3.957-1.106a11 11 0 0 0 1.122-.878.2.2 0 0 1 .261-.005l.34.338a5.5 5.5 0 0 0 2.974 1.6c.674.13 1.346.195 1.997.195a9.07 9.07 0 0 0 4.512-1.173.2.2 0 0 1 .242.034l.64.64q.146.148.325.239c.208.108.413.148.568.17.476.068.94.073 1.335.073h.43c.774 0 1.592-.034 2.328-.434q.265-.143.45-.36a.203.203 0 0 1 .269-.034c.986.687 2.025.766 2.72.766q.156 0 .314-.005c2.883-.102 5.444-.99 7.61-2.643a.2.2 0 0 1 .266.02l1.078 1.077a5.46 5.46 0 0 0 2.813 1.436c.673.129 1.345.194 1.996.194 1.664 0 3.225-.42 4.64-1.246.375-.22.76-.475 1.21-.804a.2.2 0 0 1 .262.02l.602.601.312.314Z"/><path fill="#000" d="M21.579 16.782q-.073-.08-.15-.16l-.032-.033-.018-.018-.016-.017-.017-.016-.017-.017-.017-.017-.017-.017-.034-.034-.017-.016-.033-.034-.017-.017-.017-.017-.151-.151-.017-.017-.017-.017-.034-.034-.016-.016-.034-.034-.017-.017-.051-.05-.017-.018-.017-.017-.017-.016-.016-.017-.017-.017-.034-.033-.017-.018q-.008-.007-.016-.017l-.017-.016-.017-.017-.135-.135-.017-.017-.202-.202-.017-.017-.017-.017-.05-.05-.017-.017-.017-.017-.017-.017-.017-.017-.017-.017-.017-.017-.016-.016-.018-.017-.033-.034-.017-.017-.034-.033-.011-.012.002-.002c1.064-.361 2.063-.83 2.954-1.495-.62.953-1.077 2.01-1.363 3.101m63.232 4.482a4.3 4.3 0 0 1-1.493.216 6 6 0 0 1-.055-.93c1.763.443 3.446-.21 3.695-.313a8.2 8.2 0 0 1-2.147 1.027m-27.896 0a4.3 4.3 0 0 1-1.493.216 6 6 0 0 1-.055-.93c1.682.422 3.293-.153 3.654-.296a8.2 8.2 0 0 1-2.105 1.01Zm-41.089-4.537c-.077 1.44-.675 2.682-1.797 3.67a4.5 4.5 0 0 1-1.265.8c.852-1.611 1.352-3.351 1.84-5.094.408-.087.808-.09 1.188-.03.031.211.046.429.034.654M17.9 5.749c.234 1.851-.12 3.556-1.623 4.907-.1.09-.206.17-.311.25.56-1.924 1.156-3.956 1.579-5.331.113.022.225.055.338.085q.01.044.017.089m12.453 9.86c.023-.03.052-.057.078-.085a34 34 0 0 1-1.088 3.499c-.18.479-.556.91-.931 1.304.213-1.713.808-3.309 1.94-4.719Zm80.573 4.626c-.043.08-.096.155-.144.233.016-.084.035-.17.046-.253.044-.311.106-.725-.122-.989l.318-.456c.177-.27.362-.537.544-.804a5.2 5.2 0 0 1-.642 2.268Zm-41.96-.99-.008.011a9 9 0 0 1-.543.733 3 3 0 0 1-.209.225l.004-.025c.327-1.618.825-3.51 2.154-4.675a9 9 0 0 1-1.399 3.732Zm48.595-2.607c.672-.488 1.108-1.254 1.108-2.119 0-.739-.317-1.407-.828-1.89l-.017-.017-.017-.017-.017-.017-.017-.017-.016-.017-.017-.017-.017-.016-.017-.017-.017-.017-.017-.017-.017-.017-.017-.017-.016-.016-.017-.017-.017-.017-.017-.017-.017-.017-.017-.017-.017-.016-.016-.017-.017-.017-.017-.017-.017-.017-.017-.017-.017-.017-.016-.016-.018-.018-.016-.016-.017-.017-.017-.017-.017-.017-.017-.017q-.008-.007-.016-.017l-.017-.016-.017-.017-.017-.017-.017-.017-.017-.017-.016-.017-.017-.016-.017-.017-.017-.017-.017-.017-.017-.017-.017-.017-.017-.017-.016-.016-.017-.017-.017-.017-.017-.017-.017-.017-.017-.017-.017-.017q-.008-.007-.016-.017l-.017-.016-.017-.018-.017-.016-.017-.017-.017-.017-.016-.016-.018-.018-.016-.016-.017-.017-.017-.017-.017-.017-.017-.016-.016-.018-.017-.016-.017-.017-.017-.017-.017-.017-.017-.017-.016-.017-.018-.016-.016-.017-.017-.017-.017-.017-.017-.017-.017-.017-.017-.017-.016-.016-.017-.018-.017-.016-.017-.017-.017-.017-.017-.017-.017-.017q-.008-.007-.016-.017l-.017-.016-.017-.017-.017-.017-.017-.017-.017-.017-.016-.017-.018-.017-.016-.016-.017-.017-.017-.017-.017-.017-.017-.017-.017-.017-.016-.016-.017-.017-.017-.017-.017-.017-.017-.017-.017-.017-.017-.016-.016-.017-.017-.017-.017-.017-.017-.017-.017-.017-.017-.017-.016-.016-.017-.018-.017-.016-.017-.017-.017-.017-.017-.017-.017-.017q-.008-.007-.016-.017l-.017-.016-.017-.017-.017-.017-.017-.017-.017-.017-.016-.017-.017-.017-.017-.016-.017-.017-.017-.017-.017-.017-.017-.017-.017-.017-.016-.016-.017-.017-.017-.017-.017-.017-.017-.017-.017-.017-.017-.017-.016-.016-.017-.017-.017-.017-.017-.017-.017-.017-.017-.017-.016-.016-.017-.018a2.88 2.88 0 0 0-2.002-.794 2.87 2.87 0 0 0-2.107.905c-.453.487-.811 1.04-1.191 1.58q-.615.873-1.227 1.747c-.375.537-1.173 1.64-1.645 2.307q-.017-.007-.033-.013c-.15-.047-.303-.039-.459-.029a1.6 1.6 0 0 0-.406.083 2.1 2.1 0 0 0-.694.424 4 4 0 0 0-.247.246c.481-1.856.957-3.712 1.44-5.568.469-1.805.945-3.61 1.424-5.437a.89.89 0 0 0-.263-.868q-.008-.01-.018-.018l-.017-.017-.017-.017-.016-.017-.017-.017-.017-.017-.017-.017-.017-.017-.017-.016-.017-.017-.016-.017-.017-.017-.017-.017-.017-.017-.017-.017-.017-.016-.017-.017-.017-.017-.016-.017-.017-.017-.017-.017-.017-.016-.017-.017-.017-.017-.016-.017-.017-.017-.017-.017-.017-.016-.017-.018-.017-.016-.017-.017-.016-.017-.017-.017-.017-.017-.017-.017-.017-.016-.017-.017-.016-.017-.017-.017-.017-.017-.017-.016-.017-.018-.017-.016-.017-.017-.016-.017-.017-.017-.017-.017-.017-.017-.017-.017-.017-.016-.017-.017-.017-.017-.016-.017-.017-.017-.017-.017-.017-.016-.017-.017-.017-.017-.016-.017-.017-.017-.017-.017-.017-.016-.017-.018-.017-.016-.017-.017-.016-.017-.017-.017-.017-.017-.017-.017-.017-.016-.017-.017-.016-.017-.018-.017-.016-.017-.017-.017-.017-.017-.017-.016-.017-.017-.017-.017-.016-.017-.017-.017-.017-.017-.017-.016-.017-.018-.034-.033-.016-.017-.017-.017-.017-.017-.017-.016-.017-.017-.017-.017-.016-.017-.018-.017-.016-.017-.017-.016-.017-.018-.017-.016-.017-.017-.016-.017-.017-.017-.017-.017-.017-.017-.017-.016-.017-.017-.016-.017-.018-.017-.016-.017-.017-.017-.017-.017-.017-.016-.017-.017-.017-.017-.016-.017-.017-.017-.017-.017-.017-.016-.017-.018-.017-.016-.017-.017-.016-.017-.017-.017-.017-.017-.017-.016-.017-.017-.017-.017-.016-.017-.017-.017-.017-.017-.017-.017-.017-.017-.017-.016-.017-.017-.016-.017-.017-.017-.017-.017-.017-.017-.017-.017-.017-.016-.017-.017-.017-.017-.016-.017-.017-.017-.017-.017-.017-.016-.017-.017-.017-.017-.016-.017-.017-.017-.023-.021c-.225-.224-.566-.364-.944-.377-2.824-.126-2.971 1.23-2.971 1.23-1.044 3.956-2.079 7.892-3.124 11.825-.42 1.584-.833 3.186-1.89 4.511a5094 5094 0 0 1 2.73-10.523c.245-.947.586-1.87.778-2.83.08-.4.186-.78-.045-1.148a1 1 0 0 0-.18-.213l-.016-.017-.017-.017-.017-.017-.017-.017-.017-.016-.016-.017-.017-.017-.017-.017-.017-.017-.017-.017-.017-.017q-.007-.008-.017-.016l-.016-.017-.017-.017-.017-.017-.017-.017-.017-.017q-.008-.008-.017-.016l-.016-.017-.017-.017-.017-.017-.017-.017-.017-.017-.017-.016-.016-.018-.018-.016-.016-.017-.017-.017-.017-.017-.017-.017-.017-.017q-.007-.008-.017-.016l-.017-.017-.016-.017-.017-.017-.017-.017L99.098 4l-.017-.017-.017-.016-.016-.017-.017-.017-.017-.017-.017-.017-.017-.017-.017-.017q-.007-.008-.017-.016l-.017-.017-.016-.017-.017-.017-.017-.017-.017-.017-.017-.016-.017-.017-.017-.017-.016-.017-.017-.017-.017-.017-.017-.017-.017-.017q-.008-.008-.017-.016l-.016-.017-.017-.017-.017-.017-.017-.017-.017-.017-.017-.017-.017-.016-.016-.017-.017-.017-.017-.017-.017-.017-.017-.017-.017-.016-.016-.017-.017-.017-.017-.017-.017-.017-.017-.017-.017-.017-.016-.016-.018-.017-.016-.017-.017-.017-.017-.017-.017-.017-.017-.016-.017-.017-.016-.017-.017-.017-.017-.017-.017-.017-.017-.017-.017-.017q-.008-.008-.017-.016l-.016-.017-.017-.017-.017-.017-.017-.017-.017-.017-.017-.017-.017-.016-.016-.017-.017-.017-.017-.017-.017-.017-.017-.017q-.008-.008-.017-.016l-.016-.017-.017-.017-.017-.017-.017-.017-.017-.017-.017-.016-.016-.017-.018-.017-.016-.017-.017-.017-.017-.017-.017-.017-.017-.016-.017-.018-.017-.016-.016-.017-.017-.017-.017-.017-.017-.017-.017-.017q-.008-.008-.017-.016l-.016-.017-.017-.017-.017-.017-.017-.017-.017-.017-.017-.017-.017-.016-.016-.017-.017-.017-.017-.017-.017-.017-.017-.017-.017-.016-.016-.017-.017-.017-.017-.017-.017-.017-.017-.017-.017-.016-.016-.018-.018-.016-.016-.017c-.194-.184-.447-.275-.738-.299-1.368-.11-2.868.116-3.249 1.555-.95 3.593-1.906 7.19-2.832 10.79a2.5 2.5 0 0 0-.268-.35l-.017-.016q-.008-.008-.016-.017l-.018-.017-.016-.016-.017-.017-.017-.017-.017-.017-.017-.017-.017-.017q-.008-.008-.016-.017l-.017-.016-.017-.018-.017-.016-.017-.017-.016-.017-.017-.017-.017-.016-.017-.017-.017-.017-.017-.017-.017-.017-.017-.017-.016-.017-.017-.016-.017-.017-.017-.017-.017-.017-.017-.017-.017-.017q-.008-.007-.016-.017-.01-.008-.017-.017l-.017-.016-.017-.017-.017-.017-.017-.017q-.008-.008-.016-.017-.01-.008-.017-.017-.008-.007-.017-.017l-.017-.016-.017-.017-.017-.017-.017-.017-.017-.017q-.008-.008-.016-.017l-.017-.016q-.009-.008-.017-.018l-.017-.016-.017-.017-.016-.017-.017-.017-.017-.016q-.01-.008-.017-.018l-.017-.016-.017-.017-.017-.017-.017-.017q-.008-.008-.016-.017l-.017-.016-.017-.017-.017-.017-.017-.017-.017-.017-.017-.017q-.008-.008-.016-.017-.01-.008-.017-.017l-.017-.016-.017-.017-.017-.017-.017-.017q-.008-.008-.016-.017-.01-.008-.017-.017-.009-.007-.017-.017l-.017-.016-.017-.017-.017-.017-.017-.017-.017-.017q-.008-.008-.016-.017l-.017-.016q-.008-.008-.017-.018l-.017-.016-.017-.017-.017-.017-.016-.017-.017-.017-.017-.017-.017-.016-.017-.017-.017-.017-.017-.017-.017-.017-.016-.017q-.008-.007-.017-.017l-.017-.016-.017-.017-.017-.017-.017-.017-.016-.017q-.01-.008-.017-.017l-.017-.016-.017-.017-.017-.017-.017-.017q-.008-.008-.016-.017-.01-.008-.017-.017l-.017-.016-.017-.017-.017-.017-.017-.017-.016-.017-.018-.017-.016-.017-.017-.016-.017-.017-.017-.017-.017-.017-.017-.017-.017-.017q-.008-.007-.016-.017-.01-.008-.017-.017l-.017-.016-.017-.017-.017-.017-.017-.017q-.008-.008-.016-.017-.01-.008-.017-.017-.008-.007-.017-.017l-.017-.016-.017-.017-.017-.017-.017-.017-.016-.017q-.01-.008-.017-.017l-.017-.016-.017-.018-.017-.016-.017-.017-.016-.017-.017-.017-.017-.016q-.01-.008-.017-.018l-.017-.016-.017-.017-.017-.017-.017-.017q-.008-.008-.016-.017l-.017-.016-.017-.017-.017-.017-.017-.017c-.428-.472-1.057-.822-1.857-.99-1.342-.282-2.68-.18-3.916.378-2.345 1.059-3.855 2.697-4.703 4.784-.165-.683-.468-1.28-.884-1.737q-.01-.008-.017-.017-.01-.008-.017-.017l-.017-.017-.017-.016-.016-.017-.017-.017q-.01-.008-.017-.017l-.017-.017-.017-.017q-.009-.007-.017-.017l-.017-.016-.016-.017-.017-.017-.017-.017q-.008-.008-.017-.017l-.017-.017-.017-.016-.017-.017-.017-.017q-.008-.008-.016-.017l-.017-.017-.017-.017q-.01-.008-.017-.017l-.017-.016-.017-.017-.016-.017-.017-.017q-.01-.008-.017-.017-.01-.008-.017-.017l-.017-.017-.017-.017-.017-.016-.016-.017-.017-.017q-.01-.008-.017-.017-.009-.008-.017-.017l-.017-.017-.017-.016q-.008-.01-.017-.017l-.017-.017q-.008-.008-.016-.017l-.017-.017-.017-.017q-.008-.007-.017-.017l-.017-.016-.016-.017-.017-.017-.017-.017q-.01-.008-.017-.017-.008-.008-.017-.017l-.017-.016-.017-.017-.017-.017-.016-.017-.017-.017q-.01-.008-.017-.017-.01-.008-.017-.017l-.017-.016-.017-.017-.017-.017-.016-.017-.017-.017q-.01-.008-.017-.017l-.017-.016-.017-.018-.017-.016-.016-.017-.017-.017q-.01-.008-.017-.017-.008-.008-.017-.017l-.017-.017-.017-.016q-.008-.01-.016-.017l-.018-.017q-.008-.008-.016-.017l-.017-.017-.017-.017q-.01-.008-.017-.017l-.017-.016-.017-.017-.017-.017-.016-.017q-.01-.008-.017-.017-.01-.008-.017-.017l-.017-.017-.017-.017-.017-.016-.016-.017-.017-.017q-.008-.008-.017-.017-.01-.008-.017-.017l-.017-.016-.017-.017-.016-.017-.017-.017q-.01-.008-.017-.017-.01-.008-.017-.017l-.017-.016-.017-.018-.017-.016-.016-.017-.017-.017q-.01-.008-.017-.017-.01-.008-.017-.017l-.017-.017-.017-.016-.017-.017-.017-.017q-.008-.008-.016-.017l-.017-.017-.017-.017q-.01-.008-.017-.017l-.017-.016-.017-.017-.016-.017-.017-.017-.017-.017q-.01-.008-.017-.017l-.017-.017-.017-.017-.017-.016-.016-.017-.017-.017q-.01-.008-.017-.017-.009-.008-.017-.017l-.017-.017-.017-.016q-.008-.01-.017-.017l-.016-.017q-.01-.008-.017-.017l-.017-.017-.017-.016q-.008-.01-.017-.018l-.017-.016-.016-.017-.017-.017q-.01-.008-.017-.017-.01-.008-.017-.017-.008-.008-.017-.017l-.017-.016-.017-.017-.017-.017-.016-.017-.017-.017-.017-.017q-.01-.008-.017-.017l-.017-.016-.017-.017-.017-.017-.016-.017a2.97 2.97 0 0 0-1.758-.977 5.6 5.6 0 0 0-1.072-.065l1.237-4.617c.064-.144.12-.579-.186-.88l-.018-.017-.016-.017-.017-.017-.034-.034-.017-.017-.017-.016-.017-.017-.016-.017-.017-.017-.017-.017-.017-.017-.017-.016-.017-.017-.016-.017-.017-.017-.017-.017-.017-.017-.017-.017-.017-.017-.016-.016-.017-.017-.034-.034-.017-.017-.034-.034-.016-.016-.017-.017-.017-.017-.017-.017-.017-.017-.017-.017-.016-.016-.018-.017-.016-.017-.017-.017-.017-.017-.017-.017-.017-.017-.034-.034-.016-.016-.017-.017-.017-.017-.017-.017-.017-.016-.017-.018-.016-.016-.017-.017-.017-.017-.017-.017-.017-.017-.017-.017-.016-.016-.017-.017-.034-.034-.017-.017-.017-.017-.017-.017-.016-.016-.017-.017-.017-.017-.017-.017-.017-.017-.017-.017-.016-.016-.018-.017-.016-.017-.017-.017-.017-.017-.017-.017-.017-.017-.017-.016-.017-.017-.016-.017-.034-.034-.017-.017-.017-.016-.017-.018-.016-.016-.017-.017-.017-.017-.017-.017-.017-.017-.017-.017-.016-.016-.017-.017-.017-.017-.017-.017-.017-.017-.017-.017-.017-.017-.016-.016-.017-.017-.017-.017-.017-.017-.017-.017-.017-.017-.017-.016-.017-.018-.016-.016-.017-.017-.017-.017-.017-.017-.017-.017-.017-.017-.016-.016-.017-.017-.017-.017-.017-.017-.017-.017-.017-.016-.017-.018-.016-.016-.017-.017-.017-.017-.017-.017-.034-.034-.017-.016-.016-.017-.017-.017-.017-.017-.017-.017-.017-.017-.017-.017-.034-.034-.016-.016-.017-.017-.017-.017-.017-.017-.034-.034-.016-.016-.034-.034-.017-.017-.017-.017-.017-.017-.016-.016-.034-.034-.017-.017-.017-.017-.017-.017-.017-.017c-.176-.184-.481-.324-.995-.324-2.594 0-3.025 1.291-3.025 1.291-.971 3.677-1.945 7.354-2.908 11.033a2.6 2.6 0 0 0-.244-.311l-.016-.017q-.01-.008-.017-.017-.008-.008-.017-.017l-.017-.016-.017-.017-.017-.017-.017-.017-.016-.017-.017-.017q-.009-.008-.017-.017l-.017-.016-.017-.018-.017-.016-.016-.017-.017-.017-.017-.017-.017-.016q-.008-.01-.017-.017l-.017-.017-.017-.017-.016-.017-.017-.017-.017-.017-.017-.016-.017-.017-.017-.017-.016-.017-.017-.017-.017-.017q-.009-.007-.017-.017-.008-.008-.017-.017l-.017-.016-.016-.017-.018-.017-.016-.017q-.01-.008-.017-.017-.008-.008-.017-.017-.009-.007-.017-.017l-.017-.016-.017-.017-.017-.017-.016-.017q-.01-.008-.017-.017-.008-.008-.017-.017l-.017-.016q-.009-.008-.017-.018l-.017-.016-.016-.017-.017-.017-.017-.017-.017-.016-.017-.018-.017-.016-.017-.017-.016-.017-.017-.017q-.01-.008-.017-.017l-.017-.016-.017-.017-.017-.017-.016-.017-.017-.017-.017-.017q-.008-.008-.017-.017-.008-.008-.017-.017l-.017-.016-.016-.017-.018-.017-.016-.017q-.01-.008-.017-.017-.009-.008-.017-.017l-.017-.017-.017-.016-.017-.017-.016-.017-.017-.017q-.01-.008-.017-.017-.01-.008-.017-.017l-.017-.016q-.009-.008-.017-.018l-.017-.016-.016-.017-.017-.017-.017-.017q-.008-.007-.017-.017-.008-.007-.017-.017l-.017-.016-.017-.017-.017-.017-.016-.017q-.01-.008-.017-.017l-.017-.017q-.008-.007-.017-.017l-.017-.016-.016-.017-.017-.017-.017-.017q-.008-.008-.017-.017-.009-.008-.017-.017l-.017-.016-.017-.017-.017-.017-.016-.017q-.01-.008-.017-.017-.01-.008-.017-.017l-.017-.016-.017-.017-.017-.017-.017-.017-.016-.017q-.01-.008-.017-.017l-.017-.017-.017-.016-.017-.017-.017-.017-.016-.017-.017-.017-.017-.017q-.009-.007-.017-.017-.009-.008-.017-.017l-.017-.016-.016-.017-.018-.017-.016-.017q-.01-.008-.017-.017-.008-.008-.017-.017-.008-.007-.017-.017l-.017-.016-.017-.017-.017-.017-.016-.017q-.01-.008-.017-.017-.009-.008-.017-.017l-.017-.016-.017-.018-.017-.016-.016-.017-.017-.017-.017-.017-.017-.016-.017-.018-.017-.016-.017-.017-.016-.017-.017-.017q-.01-.008-.017-.017l-.017-.016-.017-.017-.017-.017-.016-.017c-.428-.472-1.057-.822-1.858-.99-1.341-.282-2.679-.18-3.915.378-2.432 1.098-3.966 2.82-4.794 5.018a2.37 2.37 0 0 0-.693-1.127l-.017-.017-.016-.017-.017-.017-.017-.016-.017-.018-.017-.016q-.008-.01-.017-.017l-.017-.017-.017-.017-.016-.016-.017-.018-.017-.016q-.008-.01-.017-.017l-.017-.017q-.008-.009-.017-.017l-.017-.017-.016-.017-.017-.016-.017-.017q-.008-.01-.017-.017-.008-.01-.017-.017l-.017-.017-.017-.017-.016-.017-.017-.016-.017-.018-.017-.016q-.008-.01-.017-.017l-.017-.017-.016-.017-.017-.017-.017-.017-.017-.016-.017-.017-.017-.017-.016-.017-.017-.017-.017-.017-.017-.017-.017-.016q-.008-.01-.017-.017-.008-.01-.017-.017l-.016-.017-.017-.017-.017-.017-.017-.016q-.008-.01-.017-.017l-.017-.017q-.008-.01-.017-.017l-.017-.017-.016-.017-.017-.016-.017-.017-.017-.017q-.008-.01-.017-.017-.008-.009-.017-.017l-.016-.017-.017-.017-.017-.016-.017-.018-.017-.016q-.008-.01-.017-.017l-.017-.017-.016-.017-.017-.017-.017-.017-.017-.016-.017-.017-.017-.017q-.007-.009-.017-.017l-.017-.017-.016-.017-.017-.017-.017-.016q-.008-.01-.017-.017-.008-.01-.017-.017l-.017-.017-.017-.017-.016-.017-.017-.016-.017-.018-.017-.016q-.008-.01-.017-.017l-.017-.017-.016-.017-.017-.017-.017-.016-.017-.017-.017-.017-.017-.017-.016-.017-.017-.017-.017-.016-.017-.018-.017-.016q-.008-.008-.017-.017l-.017-.017-.016-.017-.017-.016-.017-.018-.017-.016q-.008-.01-.017-.017l-.017-.017-.017-.017-.017-.017-.016-.017-.017-.017-.017-.016q-.008-.01-.017-.017l-.017-.017-.017-.017-.017-.017-.016-.017q-.01-.008-.017-.016l-.017-.018-.017-.016q-.008-.01-.017-.017l-.017-.017-.017-.017-.016-.017-.017-.017-.017-.016-.017-.017-.017-.017-.016-.017-.017-.017-.017-.016-.017-.018-.017-.016q-.008-.01-.017-.017l-.017-.017-.016-.017-.018-.017-.016-.017-.017-.016q-.008-.01-.017-.017l-.017-.017q-.008-.01-.017-.017l-.017-.017-.016-.017-.017-.016-.017-.017-.017-.017q-.008-.01-.017-.017-.008-.009-.017-.017l-.017-.017-.016-.017-.018-.016-.016-.018-.017-.016c-.445-.42-1.057-.723-1.77-.946-.267-.083-.538-.152-.808-.222l-.067-.017-.003-.003-.017-.017-.017-.017-.017-.017-.017-.017-.016-.016-.017-.017-.017-.017-.017-.017q-.009-.008-.017-.017l-.017-.017-.017-.016q-.007-.01-.016-.017l-.017-.017-.017-.017-.017-.017-.017-.017-.017-.017-.016-.016q-.008-.008-.017-.018l-.017-.016-.017-.017q-.009-.008-.017-.017l-.017-.017-.017-.016q-.007-.008-.017-.018l-.016-.016-.017-.017-.017-.017-.017-.017-.017-.017-.017-.017-.016-.016-.017-.017-.017-.017-.017-.017-.017-.017-.017-.017-.017-.017-.016-.016-.017-.017-.017-.017-.017-.017q-.008-.008-.017-.017l-.017-.017-.017-.017q-.007-.008-.017-.016l-.016-.017-.017-.017-.017-.017-.017-.017-.017-.017-.016-.016-.017-.017q-.009-.01-.017-.017L42.32 9.9q-.008-.008-.017-.017l-.017-.017-.017-.016q-.008-.009-.017-.018l-.016-.016-.017-.017-.017-.017-.017-.017-.017-.017-.017-.017-.016-.016-.017-.017-.017-.017-.017-.017-.017-.017-.017-.017-.017-.017-.016-.016L42 9.58l-.017-.017-.017-.017q-.008-.008-.017-.017l-.017-.017-.017-.016q-.007-.01-.017-.018l-.016-.016-.017-.017-.017-.017-.017-.017-.017-.017-.017-.016-.016-.017q-.009-.01-.017-.017l-.017-.017-.017-.017-.017-.017-.017-.016q-.008-.009-.017-.018l-.016-.016-.017-.017-.017-.017-.017-.017q-.008-.008-.017-.017l-.017-.017-.017-.016-.016-.017-.017-.017-.017-.017c-.11-.133-.3-.217-.6-.222-.655-.011-1.072.532-1.31 1.047-.128.28-.225.58-.281.88-.633 2.303-1.228 4.616-1.923 6.901a6 6 0 0 1-.513 1.207q.03-.116.057-.232.383-1.517.794-3.027.206-.76.415-1.52.105-.38.208-.76c.03-.106.068-.208.044-.318a.4.4 0 0 0-.142-.223l-.017-.017-.016-.017-.017-.016-.017-.018-.017-.016-.017-.017-.017-.017-.017-.017-.017-.016-.016-.018-.017-.016q-.008-.01-.017-.017l-.017-.017-.017-.017-.017-.017-.016-.017-.017-.016-.017-.017-.017-.017-.017-.017-.017-.017-.016-.017-.017-.017-.017-.016-.017-.017-.017-.017-.017-.017-.017-.017-.016-.017-.017-.017-.017-.017-.017-.016q-.008-.01-.017-.017l-.017-.017-.017-.017-.017-.017-.016-.016-.017-.017-.017-.017-.017-.017-.017-.017-.016-.017-.018-.017-.016-.017-.017-.016-.017-.017-.017-.017-.017-.017-.017-.017-.016-.017-.017-.016-.017-.017-.017-.017-.017-.017-.017-.017-.016-.016-.017-.018-.034-.033-.017-.017-.017-.017-.017-.017-.016-.017-.018-.017-.016-.017-.017-.016q-.008-.01-.017-.017l-.017-.017-.017-.017-.017-.017-.016-.017-.017-.016-.017-.017-.017-.017-.017-.017-.016-.017-.017-.017-.017-.017-.017-.016-.017-.017-.017-.017-.017-.017-.017-.017-.016-.017-.017-.016-.017-.017-.017-.017-.017-.017-.017-.017-.016-.017-.017-.017-.017-.016-.017-.017-.017-.017-.017-.017-.017-.017-.016-.017-.018-.016-.016-.018-.017-.016-.017-.017-.017-.017-.017-.017-.017-.017-.016-.017-.017-.016-.017-.017-.017-.017-.017-.017-.017-.017-.016-.017-.017-.017-.017-.016-.017-.017-.017-.017-.017-.017-.017-.017-.016-.017-.017-.016-.017-.017-.017-.017q-.008-.01-.017-.017l-.017-.017-.017-.017-.016-.017-.017-.016-.017-.017-.017-.017-.017-.017-.017-.017-.016-.017-.018-.017-.016-.017-.017-.016-.017-.017-.017-.017-.017-.017-.033-.034-.017-.016-.017-.017-.017-.017-.017-.017-.017-.017-.016-.017-.017-.017-.017-.016-.017-.017-.017-.017a.9.9 0 0 0-.195-.148c-.264-.15-.572-.236-.866-.313a14 14 0 0 0-.73-.167c-.685-.137-1.428-.052-1.916.463-.206.217-.328.488-.416.765-.092.29-.178.582-.266.873l-.002-.001-.017-.017-.016-.017-.017-.017-.017-.017-.017-.017-.017-.017-.017-.016-.016-.017-.018-.017-.016-.017-.017-.017-.017-.017-.017-.017-.017-.016-.017-.017-.016-.017-.017-.017-.017-.017-.017-.017-.017-.017-.017-.016-.017-.017-.016-.017-.017-.017-.017-.017-.017-.017-.017-.016-.017-.017-.017-.017-.016-.017c-.532-.555-1.188-1-1.953-1.153-1.122-.226-2.284.21-3.236.817a9 9 0 0 0-1.05.795c.632-1.273.654-2.72-.05-3.988a5 5 0 0 0-.688-.958q-.01-.008-.017-.017l-.017-.017-.017-.017-.017-.017-.016-.016-.017-.017-.017-.017-.017-.017-.017-.017q-.009-.008-.017-.017l-.016-.016-.017-.017-.017-.017-.017-.017q-.008-.008-.017-.017l-.017-.017-.017-.017-.017-.016-.016-.017-.017-.017-.017-.017-.017-.016q-.009-.01-.017-.018l-.017-.017-.017-.016-.016-.017-.017-.017-.017-.017q-.01-.008-.017-.017l-.017-.017-.017-.017-.017-.016-.016-.017-.017-.017-.017-.017-.017-.017q-.009-.008-.017-.017l-.017-.016q-.008-.01-.016-.017l-.017-.017-.017-.017-.017-.017-.017-.017q-.009-.008-.017-.017l-.017-.016-.016-.017L23.085 6l-.017-.017-.017-.017q-.009-.008-.017-.017l-.017-.017L23 5.916l-.016-.016-.017-.017-.017-.017-.017-.017-.017-.017-.017-.016-.016-.017-.017-.017-.017-.017-.017-.017q-.01-.008-.017-.017l-.017-.017-.017-.017-.016-.016-.018-.017-.016-.017q-.01-.008-.017-.017l-.017-.017q-.009-.008-.017-.017l-.017-.016q-.008-.01-.016-.017l-.017-.017-.017-.017-.017-.017-.017-.017-.017-.017-.017-.016-.016-.017-.017-.017-.017-.017-.017-.017q-.009-.008-.017-.017l-.017-.016q-.008-.01-.016-.017l-.018-.017-.016-.017-.017-.017q-.008-.008-.017-.017l-.017-.017q-.009-.008-.017-.017l-.016-.016-.017-.018-.017-.016-.017-.017-.017-.017q-.009-.008-.017-.017-.009-.008-.017-.017l-.016-.016-.018-.017-.016-.017q-.01-.008-.017-.017l-.017-.017q-.009-.008-.017-.017l-.017-.016q-.008-.01-.016-.017l-.018-.017-.016-.017-.017-.017q-.008-.008-.017-.017l-.017-.017-.017-.016-.017-.017q-.008-.01-.016-.017l-.017-.017-.017-.017-.017-.017-.017-.016q-.008-.01-.016-.017l-.018-.017-.016-.017-.017-.017q-.008-.008-.017-.017l-.017-.017-.017-.016-.017-.018q-.008-.008-.016-.017l-.017-.016q-.009-.008-.017-.017l-.017-.017q-.008-.008-.017-.017-.009-.008-.017-.017l-.017-.016-.017-.017-.016-.017q-.01-.008-.017-.017l-.017-.017q-.01-.008-.017-.017l-.017-.016q-.008-.009-.017-.018l-.017-.016-.016-.017-.017-.017q-.008-.008-.017-.017l-.017-.017-.017-.016-.017-.017-.016-.017-.017-.017c-.76-.843-1.767-1.407-2.896-1.818-2.048-.747-4.17-.815-6.31-.521-2.947.406-5.577 1.475-7.657 3.56-1.49 1.492-2.146 3.267-1.802 5.332.084.509.307.924.612 1.224l.017.017.017.017.017.017.016.016.018.017.016.017.017.017.017.017.017.017.017.016.016.017.017.017.017.017.017.017.017.017.017.017.017.017.017.016.017.017.016.017a1 1 0 0 0 .067.067l.017.017.034.034.017.017.017.017.034.033.016.017.017.017.017.017.017.017.017.017.017.017.016.016.018.017.016.017.017.017.017.017.017.017.017.017.017.016.016.017.017.017.017.017.017.017.017.017q.008.007.016.017l.018.016.017.017.016.017.017.017.017.017.017.017.017.016.016.017.034.034a1 1 0 0 0 .05.05 1 1 0 0 0 .051.051l.034.034.017.017.017.016.017.018.017.017.016.016.017.017.017.017.017.017.017.017.017.016.016.017.017.017.017.017.017.017.017.017q.008.007.016.017l.034.033.017.017.017.017.017.017.017.017.017.016.017.017.033.034.017.017.034.034.017.017.017.016a1 1 0 0 0 .067.067l.017.017.017.018.017.017.016.016.017.017.017.017.017.016.017.018.017.017.016.016.017.017.017.017.017.017.017.017.017.016.017.018.016.016.017.017.017.017.017.017.017.017.017.016.017.017.016.017.017.017.017.017.034.034.017.017.017.016.033.034.017.017.017.017.017.017.017.017.017.016.016.017.017.017.017.017.017.017.017.017.017.017.016.016.017.017.017.017c.336.338.776.53 1.244.551-.462 1.585-.908 3.176-1.893 4.565-.15.21-.454.39-.72.447-1.082.231-2.34.66-3.038 1.526-.296.366-.513.899-.367 1.362a.8.8 0 0 0 .22.343l.017.017q.008.01.017.017.008.01.017.017l.016.017.018.017.016.017.017.017.017.016q.007.01.017.017.008.01.017.017l.016.017.017.017.017.017.017.017.017.017.017.016.016.017.017.017.017.017.017.017.017.016.017.017q.008.01.017.017l.016.017.017.017.017.017.017.017q.008.008.017.016l.017.017q.007.01.017.017.008.01.017.017l.016.017.017.017.017.017.017.017.017.016q.008.01.017.017l.016.017q.008.008.018.017l.016.017.017.017.017.016q.008.01.017.017.008.01.017.017l.016.017.017.017.017.017.017.017q.008.008.017.016l.017.017q.007.01.017.017l.017.017.016.017.017.017.017.016.017.017q.008.01.017.017l.016.017.017.017.017.017.017.017.017.017.017.016q.007.01.017.017.008.01.017.017l.016.017.017.017.017.017.017.017.017.016q.008.01.017.017l.016.017.018.017.016.017.017.017.017.016q.008.01.017.017.008.01.017.017.007.01.017.017l.016.017.017.017.017.017.017.017.017.016q.007.01.017.017l.017.017.016.017.017.017.017.016.017.018.017.016q.007.01.017.017l.016.017.017.017.017.017.017.017.017.016q.007.01.017.017.008.01.017.017l.016.017.017.017.017.016.017.018.017.016q.008.01.017.017.007.01.017.017.007.01.017.017l.016.017.017.017.017.016q.008.01.017.017.008.01.017.017.007.01.017.017l.016.017.017.017.017.017q.008.008.017.016l.017.017q.007.01.017.017l.017.017.016.017.017.017.017.017.017.017.017.016q.007.01.017.017l.016.017.017.017.017.017.017.017.017.016q.007.01.017.017.008.01.017.017l.016.017.017.017.017.017.017.017q.008.008.017.016.008.01.017.017.007.01.017.017l.017.017.016.017.017.017.017.016q.008.01.017.017.008.01.017.017.007.01.017.017l.016.017.017.017.017.017c.283.274.759.343 1.163.343 1.52 0 2.948-.417 4.274-1.146.198-.108.536-.166.729-.082a10.55 10.55 0 0 0 5.6.823c2.435-.291 4.514-1.196 6.033-3.09a5.4 5.4 0 0 0 .487-.723q.16.226.351.427l.017.017.017.017.017.017q.008.007.016.017l.017.016.017.017.017.017.017.017.017.017.017.017.016.016.017.017.017.017.017.017.017.017.017.017q.008.008.016.017l.017.016.017.017.017.017.017.017.017.017.017.017.017.017.016.016.017.017.017.017.017.017.017.017.017.017.017.016.016.018.017.016.017.017.017.017.017.017.017.017q.008.008.016.017l.017.016.017.017.017.017.017.017.017.017.017.017.017.016.016.017.017.017.017.017.017.017.017.017q.008.008.016.017l.017.016.017.017.017.017.017.017.017.017.016.017.018.017.016.016.017.017.017.017.017.017.017.017.017.017.017.016.016.018.017.016.017.017.017.017.017.017.017.017q.008.008.016.017l.018.016.016.017.017.017.017.017.017.017.017.017.017.016.016.017.017.017.017.017.017.017.017.017.017.017.017.016.016.017.017.017.017.017.017.017.016.017.018.017.016.016.017.017.017.017.017.017.017.017.017.017.016.016.017.017.017.017.017.017.017.017.017.017.017.017q.008.008.016.017l.017.016.017.017.017.017.017.017.017.017.017.017.017.017.016.016.017.017.017.017.017.017.017.017.017.017.017.016.016.018.017.016.017.017.017.017.017.017.017.017q.008.007.016.017l.017.016.017.017.017.017.017.017.017.017.017.016.016.017.017.017.017.017.017.017.017.017.017.017.016.016.017.018.017.016.017.017.017.017.017.017.016.017.018.017.016.016.017.017.017.017c.274.288.593.533.956.714.995.496 2.222.468 3.27.082.937-.345 1.742-.953 2.424-1.657l.005.005.017.016.034.034.016.017.034.034q.01.007.017.017l.017.016.017.017.017.017.017.017.016.017q.01.008.017.017l.017.016.017.017.017.017.017.017.017.017.016.017.017.016.017.018.017.016.017.017.017.017.016.017q.01.008.017.017l.017.017.017.016.017.017.017.017.017.017.017.017.016.017.017.017.017.016.017.017q.007.01.017.017l.017.017.017.017.016.017q.01.007.017.017l.017.017.017.016.017.017.033.034q.01.008.017.017l.034.033.017.017.017.017.017.017.016.017c.705.72 1.82 1.117 2.873 1.032 1.527-.123 2.872-1.065 3.799-2.222.65-.813 1.145-1.7 1.55-2.623-.04.682.165 1.182.528 1.535l.017.017.016.017.017.017.017.017.017.016.017.017.033.034.017.017.017.017.017.017.017.017.034.033.016.017.018.017.016.017.017.017.017.016.017.017q.007.01.017.017l.016.017.017.017.017.017.017.017.017.016q.008.01.017.017l.016.017.017.017.017.017.017.017.017.017.017.016q.007.01.017.017l.017.017.016.017.017.017.017.017.017.016.017.017.033.034.017.017.034.033.017.017.017.017.017.017.016.017.034.034.017.017.017.016.017.017q.007.01.017.017l.017.017.016.017.017.017.034.033.017.017.016.017.017.017.017.017.017.017.017.017.017.016q.007.01.017.017l.017.017.016.017.017.017.017.017.017.016.017.017.017.017q.008.01.017.017l.016.017.017.017.017.017.017.017.017.016.017.017.016.017.034.034.017.017.034.033q.007.01.017.017l.017.017.016.017.017.017.017.017.017.017.017.016.033.034.017.017.017.017.017.017.017.017.034.033.016.017.017.017.017.017.017.017.017.016.017.017q.007.01.017.017l.016.017.017.017.017.017.017.017.017.016q.008.01.017.017l.016.017.017.017.017.017.017.017.017.017.017.016q.007.01.017.017l.017.017.016.017.017.017.017.017.017.016.017.017.033.034.017.017.017.017.017.016.017.018.017.016.017.017.016.017.034.034.017.017.017.016.017.017q.007.01.017.017l.016.017.017.017.017.017.017.017.017.016.017.017c1.216 1.217 4.267.71 5.635-.215.667-.452 1.265-1.003 1.842-1.578l.008.009.017.016.017.017.017.017.016.017q.01.008.017.017l.017.016.017.017.017.017.017.017.017.017.016.017.017.016.017.018.017.016.017.017.017.017.016.017q.01.007.017.017l.017.017.017.016.017.017.017.017.017.017.016.017.017.017q.01.008.017.017l.017.016.017.017.017.017.016.017q.01.008.017.017l.017.017q.01.007.017.017l.017.017.017.016.017.017.017.017.016.017q.01.008.017.017.01.007.017.017l.017.016.017.017.017.017.017.017.016.017q.01.007.017.017l.017.016.017.017.017.017.017.017.016.017q.01.007.017.017l.017.017.017.016.017.017.017.017.017.017.017.017.016.017q.01.008.017.017l.017.016.017.017.017.017.017.017.017.017.016.017q.01.007.017.017l.017.017.017.016a4.46 4.46 0 0 0 2.436 1.308c2.09.4 4.118.133 5.942-.933q.333-.195.652-.413l.002.002q.008.01.017.017l.017.017.017.017.016.017.018.016.016.017.017.017q.008.01.017.017l.017.017.017.017.017.017.017.016.016.017q.008.01.017.017l.017.017.017.017.017.017q.007.008.017.016l.016.017.017.017q.008.01.017.017.008.01.017.017.008.01.017.017l.017.017.017.017q.007.008.017.016l.016.017.017.017q.008.009.017.017l.017.017.017.017.016.017.017.016.017.017q.008.01.017.017l.017.017.017.017.016.017.018.016.016.017.017.017q.008.01.017.017l.017.017.017.017q.007.008.017.016.007.01.017.017l.016.017q.008.01.017.017l.017.017q.007.009.017.017l.017.017q.007.008.017.016l.016.017.017.017q.008.01.017.017.008.01.017.017.008.01.017.017l.017.017.017.017q.007.008.017.016l.016.017.017.017q.008.01.017.017l.017.017.017.017.017.017.017.016.016.017q.008.01.017.017l.017.017.017.017.017.017q.007.008.017.016l.016.017.017.017q.008.01.017.017l.017.017.017.017a.3.3 0 0 0 .077.058c.076.04.163.055.248.067.536.077 1.084.063 1.624.063.614 0 1.3-.014 1.85-.312.27-.147.294-.384.367-.647l.222-.8.009.01.017.017q.007.008.017.016l.016.017.017.017.017.017.017.017.017.017.017.017.016.016.017.017.017.017.017.017.017.017.017.017q.008.008.017.016l.016.017.017.017.017.017.017.017.017.017.017.016.017.017q.007.01.017.017l.016.017.017.017.017.017.017.017.017.016.017.017.016.017.017.017.017.017.017.017.017.017.017.017q.008.008.017.016l.016.017.017.017.017.017.017.017.017.017.017.017.017.016q.007.01.017.017l.016.017.017.017.017.017c.81.763 1.717.929 2.805.89 3.02-.106 5.652-1.127 7.842-3.107l.006.005.017.017.017.017.017.016q.007.01.017.017l.016.017.018.017.016.017.017.017.017.016.017.018.016.016.018.017.016.017.017.017.017.017.017.017.017.016.017.017.016.017.017.017.017.017.017.017.017.016q.007.01.017.017.007.01.017.017l.016.017.017.017.017.017.017.017q.008.008.017.016l.017.017.016.017q.008.008.018.017l.016.017.017.017.017.017.017.016q.008.01.017.017.007.01.017.017l.016.017.017.017.017.017.017.016.017.017q.008.01.017.017.007.01.017.017l.016.017.017.017.017.017.017.017q.008.008.017.016.007.01.017.017l.016.017.017.017.017.017.017.017.017.016.017.017q.007.01.017.017l.016.017.017.017.017.017.017.017.017.016.017.017q.007.01.017.017.007.01.017.017l.016.017.017.017.017.017.017.016q.008.01.017.017.007.01.017.017l.017.017.016.017.017.017.017.016.017.017q.007.01.017.017.007.01.017.017l.016.017.017.017.017.017.017.017q.008.008.017.016l.017.017.016.017.017.017.017.017.017.017.017.017.017.016q.007.01.017.017l.016.017.018.017.016.017.017.017.017.016.017.017q.007.01.017.017.008.01.017.017l.016.017.017.017.017.017.017.016.017.017.017.017.016.017.017.017a4.5 4.5 0 0 0 2.305 1.173c2.091.4 4.118.133 5.943-.933.686-.4 1.318-.885 1.946-1.368l.002.002.017.017.017.016.017.017.016.017.017.017.017.017.017.017.017.017.017.017.016.016.018.017.016.017.017.017.017.017.017.017.017.016.017.017.017.017.016.017.017.017.017.016.017.017.016.017.018.017.016.017.017.017.017.017.017.017.017.016.017.017.016.017.017.017.017.017.017.017q.009.008.016.017l.018.016.016.017.018.017.017.017.016.017.017.017.017.017q.008.007.016.017l.017.016.017.017.017.017.017.017.017.017.017.017.017.016.016.017.017.017.017.017.017.017.017.017.017.016.017.017q.007.01.017.017l.016.017.017.017.017.017.017.017.017.017.017.016.016.017.017.017.017.017.017.017.017.017.017.016.017.017.016.017.017.017.017.017.017.017.017.016.017.018.017.016.017.017.016.017.017.017.017.017.017.017.016.016.018.017.016.017.017.017.017.017.017.017q.008.008.016.017l.034.034.017.016.017.017c.412.425 1.003.693 1.757.788 1.384.173 2.619-.186 3.698-.99a26 26 0 0 0 1.365-1.114l.008.008.017.017.017.017.017.017.017.016.017.018.017.016.016.017.034.034.017.017.034.034.016.016.018.017.016.017.017.017.017.016.017.018q.007.008.017.016l.017.017.016.017.017.017.017.017.017.017.017.017.017.017.017.016.016.017.017.017.017.017.017.017q.008.008.017.016l.017.017.016.017.017.017.017.017.017.017.017.017.017.017.017.016.016.017.017.017.017.017.017.017.017.017.017.017.017.016.033.034.017.017.034.034q.008.008.017.016l.033.034.017.017.017.017.017.017.017.017.017.016.017.017.016.017.017.017.017.017.017.017.017.016.017.017.016.017.017.017.017.017.017.017.017.017.017.017.017.016.016.017.017.017.017.017.017.017.017.017.017.017.016.016.018.017c.606.601 1.57.87 2.859.725 1.367-.154 2.439-.795 3.376-1.694.164-.158.318-.334.481-.517l.014.014.017.017.017.017.017.016.017.017.016.017.018.017q.008.008.016.017l.016.016.019.018.033.033.017.017.016.017.017.017.017.017.017.017.033.033.017.017.034.034.017.017.017.017.017.016.017.017.016.017.017.017.017.017.017.017.017.016.017.017.017.017.016.017.017.017.017.017.017.017.017.016.017.017.016.017.018.017q.009.008.016.017l.017.017.017.017.017.017.017.016.017.017.016.017.017.017.017.017.017.017.017.016.017.017.016.017.017.017.016.016.019.018.016.017.017.016.017.017.033.034q.01.008.017.017l.017.017.017.016a3.9 3.9 0 0 0 1.571.93c2.257.688 5.457.568 7.068-1.29 1.188-1.37 1.557-3.32 1.252-5.04-.17-.96-.397-1.912-.594-2.873Z"/><path fill="#fff" d="M110.925 20.235a4.3 4.3 0 0 1-.676.946c-1.024 1.053-2.628.848-3.484-.425-.102-.153-.184-.319-.302-.525.016.028.573-.31.622-.345a2.7 2.7 0 0 0 .515-.463c.399-.476.601-1.156.683-1.753.043-.311.105-.724-.124-.989l.319-.456c.676-1.033 1.394-2.04 2.099-3.056q.059-.085.131-.184l.297-.403s.08.872.085 1.026c.163 1.19.334 2.38.455 3.575a5.2 5.2 0 0 1-.62 3.052m-40.477-5.76a8.95 8.95 0 0 1-1.484 4.77l-.007.011a9 9 0 0 1-.543.733 3.2 3.2 0 0 1-1.002.787c-.841.43-1.724.072-1.844-.816a7.1 7.1 0 0 1 .096-2.316c.34-1.68.854-3.664 2.303-4.813.277-.22.584-.399.912-.542 1.437-.625 1.584 1.306 1.569 2.186m-39.921.674a34 34 0 0 1-1.185 3.874c-.197.526-.631.997-1.04 1.42a1.58 1.58 0 0 1-1.693.407c-.595-.208-.73-.778-.82-1.312-.045-.26-.008-.533-.007-.8.09-2.076.683-4.005 2.025-5.675.265-.33.657-.615 1.053-.796.762-.346 1.632.032 1.75.815a5.5 5.5 0 0 1-.084 2.067Zm23.793-1.644c.326-.486.748-.927 1.186-1.329.224-.204.57-.32.883-.398.567-.14.953.128 1.04.686.194 1.24-.364 2.248-1.164 3.15 0 0-1.312 1.551-3.268 1.062a8.8 8.8 0 0 1 1.323-3.171m27.896 0c.326-.486.747-.927 1.186-1.329.224-.204.57-.32.882-.398.568-.14.954.128 1.041.686.193 1.24-.364 2.248-1.165 3.15 0 0-1.311 1.551-3.267 1.062a8.8 8.8 0 0 1 1.323-3.171m32.799.588c.672-.488 1.108-1.254 1.108-2.119 0-1.474-1.26-2.668-2.813-2.668a2.87 2.87 0 0 0-2.107.905c-.453.487-.812 1.04-1.192 1.58l-1.226 1.747c-.375.537-1.173 1.64-1.645 2.307q-.016-.007-.033-.013c-.15-.047-.303-.039-.459-.029a1.6 1.6 0 0 0-.406.083 2.1 2.1 0 0 0-.694.424 4 4 0 0 0-.242.24c-.726.792-.904 1.745-.946 2.745-.006.146.021.355-.066.425-.513.419-1.006.904-1.602 1.176-.682.311-1.295-.154-1.314-.885-.008-.331.003-.674.084-.994.902-3.527 1.818-7.05 2.734-10.573.469-1.806.945-3.61 1.424-5.438.157-.688-.451-1.209-1.197-1.234-2.825-.126-2.971 1.23-2.971 1.23-1.044 3.956-2.079 7.892-3.124 11.825-.434 1.633-.853 3.289-1.985 4.636a5.9 5.9 0 0 1-1.69 1.376c-.744.396-1.405-.064-1.42-.876-.006-.314.005-.64.083-.944.766-2.992 1.548-5.98 2.325-8.97l.981-3.779c.246-.947.587-1.87.779-2.83.08-.4.186-.78-.045-1.147-.202-.322-.519-.465-.9-.496-1.368-.11-2.868.116-3.249 1.555-1.049 3.964-2.11 7.931-3.122 11.906l-.108.427c-.696 2.745-2.322 4.673-5.166 5.579-2.157.687-3.798-.266-4.035-2.296a6 6 0 0 1-.058-.964c1.91.48 3.73-.327 3.73-.327 1.518-.726 2.76-1.787 3.456-3.315.868-1.905-.051-3.638-2.182-4.087-1.341-.282-2.68-.18-3.916.378-3.167 1.43-4.815 3.914-5.358 7.138-.042.249-.142.523-.306.715-.992 1.156-2.211 2.046-3.63 2.687-.09.04-.194.055-.342.096.316-.445.618-.815.86-1.218 1.283-2.136 2.034-4.39 1.6-6.885-.28-1.603-1.332-2.78-2.698-2.991-1.446-.224-2.756.095-3.9.977-.254.197-.5.403-.865.696l2.386-8.9c.1-.228.185-1.188-1.165-1.188-2.594 0-3.025 1.291-3.025 1.291-1.104 4.18-2.214 8.357-3.303 12.54l-.265 1.01c-.81 2.248-2.371 3.844-4.88 4.643-2.157.687-3.798-.266-4.034-2.296a6 6 0 0 1-.059-.964c1.91.48 3.73-.327 3.73-.327 1.519-.726 2.76-1.787 3.456-3.315.868-1.905-.051-3.638-2.182-4.087-1.342-.282-2.679-.18-3.915.378-3.167 1.43-4.816 3.914-5.358 7.138 0 0-.063.39-.061.889a8.4 8.4 0 0 1-.907 1.303c-.406.475-.882.87-1.557.952-1.064.13-1.035-1.032-.836-1.714.399-1.362.827-2.716 1.255-4.07.74-2.346-.44-3.492-2.322-4.081-.266-.083-.537-.152-.807-.222q-.951-.245-1.902-.486c.291-.66.45-1.476-.504-1.492-.655-.011-1.072.532-1.31 1.047-.128.28-.225.58-.281.88-.633 2.303-1.228 4.616-1.923 6.901a5.85 5.85 0 0 1-1.294 2.284c-.472.51-1.423 1.32-2.16.746-.45-.352-.38-1.013-.263-1.555a94 94 0 0 1 .716-3.045q.383-1.516.794-3.027a449 449 0 0 1 .624-2.28c.029-.105.067-.208.043-.318-.034-.153-.169-.26-.303-.337-.264-.15-.572-.236-.867-.313a14 14 0 0 0-.73-.166c-.684-.138-1.427-.053-1.916.462-.205.217-.327.488-.415.765-.1.313-.192.63-.288.945-.595-.81-1.42-1.527-2.438-1.732-1.122-.226-2.284.21-3.236.817-2.354 1.505-3.818 4.07-4.281 6.726-.178 1.018-.219 2.077.075 3.071.293.994.953 1.92 1.915 2.401.995.497 2.222.468 3.27.082s1.932-1.099 2.662-1.91c.35 1.415 2.006 2.306 3.533 2.183 1.526-.123 2.872-1.065 3.799-2.222 1.596-1.995 2.288-4.42 2.89-6.81.195-.769.414-1.533.627-2.319.424.094.785.16 1.136.255.883.242 1.287.78 1.113 1.654-.185.928-.497 1.832-.72 2.755-.33 1.36-.711 2.714-.92 4.092-.501 3.32 4.296 2.83 6.115 1.598.76-.515 1.432-1.156 2.082-1.817.64 1.444 1.809 2.42 3.367 2.718 2.09.4 4.118.133 5.942-.933.869-.507 1.653-1.146 2.45-1.748l-.196.743-.335 1.448c-.027.188-.084.41.127.52a.8.8 0 0 0 .249.066c.535.077 1.083.063 1.623.063.614 0 1.3-.014 1.85-.312.27-.147.294-.384.367-.647l.262-.942c1.002 1.58 2.126 1.886 3.566 1.835 3.09-.109 5.777-1.168 7.997-3.24.108-.1.226-.191.356-.3.54 1.844 1.829 3.102 3.637 3.447 2.092.4 4.118.133 5.943-.933 1.016-.593 1.914-1.369 2.854-2.053 0 .115-.011.341 0 .567.078 1.432.936 2.304 2.435 2.492 1.384.174 2.619-.186 3.698-.99.696-.52 1.34-1.1 2.004-1.658.068 1.879 1.332 2.916 3.611 2.66 1.367-.155 2.439-.796 3.376-1.695.216-.208.406-.439.636-.69-.14.153.909 1.25 1.049 1.375.418.372.914.654 1.46.82 2.257.688 5.457.568 7.068-1.29 1.188-1.37 1.557-3.32 1.252-5.04-.17-.96-.397-1.912-.594-2.873m-98.739-3.437c-1.054.948-2.352 1.259-3.918 1.36.69-2.372 1.92-6.637 2.64-8.986.369.073.74.184 1.104.345 1.079.478 1.661 1.302 1.797 2.374.234 1.851-.12 3.556-1.623 4.907m-.45 6.07c-.077 1.441-.675 2.683-1.797 3.67-1.481 1.304-3.227 1.444-5.262.408 1.838-2.144 2.578-4.692 3.29-7.246 2.04-.429 3.88 1.104 3.77 3.169Zm6.194-11.52c-.772-1.392-2.062-2.21-3.567-2.759-2.048-.747-4.17-.815-6.31-.521-2.947.406-5.577 1.475-7.657 3.56-1.49 1.492-2.146 3.267-1.802 5.332.268 1.614 1.922 2.29 3.206 1.306.376-.288.573-.606.38-1.116-.352-.932-.365-1.903-.122-2.867.574-2.283 2.136-3.732 4.383-4.55 0 0 .54-.251 1.363-.449 0 0-2.111 2.914-3.281 6.801q-.72 2.39-1.43 4.784c-.507 1.713-.942 3.455-2.008 4.959-.15.21-.454.39-.72.447-1.082.231-2.34.66-3.038 1.526-.296.366-.513.899-.367 1.362.175.553.833.67 1.366.67 1.52 0 2.948-.417 4.274-1.145.198-.11.536-.167.729-.083a10.55 10.55 0 0 0 5.6.823c2.435-.29 4.514-1.197 6.033-3.09 1.358-1.695 1.492-3.864.333-5.526-.592-.849-1.442-1.403-2.45-1.866l.508-.172c1.14-.389 2.212-.888 3.15-1.634 1.898-1.51 2.499-3.861 1.427-5.792"/></svg>